# xmcd CD database file
#
# Track frame offsets:
#	150
#	27537
#	51151
#	81129
#	91417
#	118938
#	124549
#	135661
#	156349
#	160618
#	198855
#	244663
#	261177
#	266269
#	283744
#	298397
#	310152
#	329434
#	339790
#
# Disc length: 4725 seconds
#
# Revision: 0
# Processed by: cddbd v1.5.2PL0 Copyright (c) Steve Scherf et al.
# Submitted via: CDex 1.51
#
DISCID=14127313
DTITLE=Hans Kennel Mytha - How It All Started
DYEAR=2007
DGENRE=Jazz
TTITLE0=Circle 1
TTITLE1=Mytha Fun
TTITLE2=Waves And Whales
TTITLE3=Call Of The Wild
TTITLE4=Chuehreiheli
TTITLE5=Alpine Clave
TTITLE6=Muotataler
TTITLE7=Alpine Shuffle
TTITLE8=Unterwaldner
TTITLE9=Habarigani
TTITLE10=Circle 3
TTITLE11=Alphorn Of Plenty
TTITLE12=Fir Ych Vier
TTITLE13=Cart Dance
TTITLE14=Love
TTITLE15=Snobben
TTITLE16=Peace
TTITLE17=Us Em Tal
TTITLE18=Uf Em Jolimont
EXTD=YEAR: 2007
EXTT0=
EXTT1=
EXTT2=
EXTT3=
EXTT4=
EXTT5=
EXTT6=
EXTT7=
EXTT8=
EXTT9=
EXTT10=
EXTT11=
EXTT12=
EXTT13=
EXTT14=
EXTT15=
EXTT16=
EXTT17=
EXTT18=
PLAYORDER=
